# xmcd
#
# Track frame offsets:
# 150
# 26514
# 52451
# 77930
# 102847
# 139047
# 156307
# 178972
# 196891
# 233495
#
# Disc length: 3640 seconds
#
#
# Revision: 0
# Processed by: cddbd v1.5.1PL0 Copyright (c) Steve Scherf et al.
# Submitted via: FreeRIP 2.51 
#
DISCID=870e360a
DTITLE=Lutfi - Lutfi
DYEAR=0017
DGENRE=Disco
TTITLE0=Lutfi
TTITLE1=Lutfi
TTITLE2=Lutfi
TTITLE3=Lutfi
TTITLE4=Lutfi
TTITLE5=Lutfi
TTITLE6=Lutfi
TTITLE7=Lutfi
TTITLE8=Lutfi
TTITLE9=Lutfi
EXTD=
EXTT0=
EXTT1=
EXTT2=
EXTT3=
EXTT4=
EXTT5=
EXTT6=
EXTT7=
EXTT8=
EXTT9=
PLAYORDER=
